<svg xmlns="http://www.w3.org/2000/svg" width="24" height="24" viewBox="0 0 24 24"><g fill="none"><path fill="url(#fluentColorCamera240)" d="M2 8.25A3.25 3.25 0 0 1 5.25 5H7l1.332-1.998A2.25 2.25 0 0 1 10.204 2h3.592a2.25 2.25 0 0 1 1.872 1.002L17 5h1.75A3.25 3.25 0 0 1 22 8.25v9.5A3.25 3.25 0 0 1 18.75 21H5.25A3.25 3.25 0 0 1 2 17.75z"/><path fill="url(#fluentColorCamera241)" fill-opacity="0.5" d="M2 8.25A3.25 3.25 0 0 1 5.25 5H7l1.332-1.998A2.25 2.25 0 0 1 10.204 2h3.592a2.25 2.25 0 0 1 1.872 1.002L17 5h1.75A3.25 3.25 0 0 1 22 8.25v9.5A3.25 3.25 0 0 1 18.75 21H5.25A3.25 3.25 0 0 1 2 17.75z"/><path fill="url(#fluentColorCamera243)" fill-rule="evenodd" d="M12 17a4.5 4.5 0 1 0 0-9a4.5 4.5 0 0 0 0 9" clip-rule="evenodd"/><path fill="url(#fluentColorCamera242)" d="M15 12.5a3 3 0 1 1-6 0a3 3 0 0 1 6 0"/><path fill="url(#fluentColorCamera244)" d="M18.5 10a1.5 1.5 0 1 0 0-3a1.5 1.5 0 0 0 0 3"/><defs><radialGradient id="fluentColorCamera240" cx="0" cy="0" r="1" gradientTransform="rotate(41.108 -4.919 .133)scale(29.8616 62.1235)" gradientUnits="userSpaceOnUse"><stop stop-color="#f08af4"/><stop offset=".535" stop-color="#9c6cfe"/><stop offset="1" stop-color="#4e44db"/></radialGradient><radialGradient id="fluentColorCamera241" cx="0" cy="0" r="1" gradientTransform="matrix(.5 6.9091 -7.19332 .52057 14.5 14.09)" gradientUnits="userSpaceOnUse"><stop stop-color="#312a9a"/><stop offset="1" stop-color="#312a9a" stop-opacity="0"/></radialGradient><radialGradient id="fluentColorCamera242" cx="0" cy="0" r="1" gradientTransform="matrix(5.5 6.5 -6.5 5.5 8 8)" gradientUnits="userSpaceOnUse"><stop offset=".243" stop-color="#3bd5ff"/><stop offset="1" stop-color="#2052cb"/></radialGradient><linearGradient id="fluentColorCamera243" x1="9.193" x2="13.693" y1="8" y2="18.688" gradientUnits="userSpaceOnUse"><stop stop-color="#fff"/><stop offset="1" stop-color="#decbff"/></linearGradient><linearGradient id="fluentColorCamera244" x1="17" x2="20" y1="7.75" y2="10" gradientUnits="userSpaceOnUse"><stop stop-color="#f08af4"/><stop offset="1" stop-color="#f462ab"/></linearGradient></defs></g></svg>